<svg xmlns="http://www.w3.org/2000/svg" xmlns:xlink="http://www.w3.org/1999/xlink" xmlns:sketch="http://www.bohemiancoding.com/sketch/ns" width="55px" height="60px" viewBox="0 0 55 60" version="1.1"><style>.style0{fill:	none;fill-rule:	evenodd;}.style1{fill:	#FFFFFF;}</style><!-- Generator: Sketch 3.2.2 (9983) - http://www.bohemiancoding.com/sketch --><title>Polygon 2</title><desc>Created with Sketch.</desc><defs/><g sketch:type="MSPage" class="style0"><g sketch:type="MSArtboardGroup" transform="translate(-250.000000, -100.000000)" class="style1"><g sketch:type="MSLayerGroup"><path d="M305 120.2 L305 120.2 L305 139.7 L305 139.7 L305 139.7 C305 139.7 305 139.7 305 139.7 C305 143.8 302.7 147.4 299.2 149.1 L282.8 158.6 L282.8 158.6 C281.3 159.5 279.4 160 277.5 160 C275.6 160 273.8 159.5 272.2 158.6 L272.2 158.6 L255.6 149 C252.3 147.2 250 143.7 250 139.7 C250 139.7 250 139.7 250 139.7 L250 139.7 L250 139.7 L250 120.2 L250 120.2 L250 120.2 C250 116.3 252.1 113 255.3 111.1 L255.3 111.1 L272.2 101.4 L272.2 101.4 L272.2 101.4 C273.8 100.5 275.6 100 277.5 100 C279.4 100 281.2 100.5 282.8 101.4 L282.8 101.4 L299.7 111.2 L299.7 111.2 C302.9 113 305 116.3 305 120.2 L305 120.2 ZM271 121.8 L271 138.2 L279 138.2 C282.9 138.2 285.3 136.5 285.3 133.7 C285.3 131.5 284 129.9 282 129.5 C283.7 129 284.8 127.7 284.8 125.9 C284.8 123.4 282.4 121.8 278.7 121.8 L271 121.8 ZM275.1 125 L278.5 125 C279.7 125 280.5 125.6 280.5 126.7 C280.5 127.7 279.7 128.4 278.5 128.4 L275.1 128.4 L275.1 125 ZM275.1 131.4 L278.5 131.4 C280.1 131.4 281 132.1 281 133.2 C281 134.3 280.1 135 278.5 135 L275.1 135 L275.1 131.4 Z" sketch:type="MSShapeGroup"/></g></g></g></svg>